<svg width="79" height="41" viewBox="0 0 79 41" fill="none" xmlns="http://www.w3.org/2000/svg">
<g clip-path="url(#clip0_821_2867)">
<path fill-rule="evenodd" clip-rule="evenodd" d="M15.375 1.91432V3.33255H16.4065H17.4379V11.2618V19.1909H18.9207H20.4034V9.84351V0.496094H17.8892H15.375V1.91432ZM26.1854 4.39622C22.7911 8.93314 22.5429 9.3078 22.2 10.4175C20.9383 14.5002 23.2784 18.5121 27.4303 19.3838C28.5897 19.6271 29.2099 19.6252 30.4243 19.3744C32.4048 18.9653 34.2544 17.6671 35.0898 16.0998C36.6211 13.227 36.1489 9.90386 33.8878 7.63984C32.5902 6.34049 31.0188 5.65329 29.3457 5.65329H28.7594L29.1908 5.08213C29.428 4.76792 30.2315 3.71366 30.9761 2.73948C31.7206 1.76515 32.4057 0.861868 32.4983 0.732036C32.6593 0.506666 32.5871 0.496094 30.885 0.496094H29.1033L26.1854 4.39622ZM6.0917 5.21222C4.92227 5.51997 3.78222 6.17198 2.93848 7.01569C0.191144 9.76293 0.0941845 14.4538 2.72664 17.2601C4.1248 18.7506 5.77942 19.4488 7.91354 19.4488C9.38391 19.4488 10.3539 19.1775 11.1387 18.5468C11.4386 18.3058 11.7698 18.1595 12.0151 18.1595C12.3892 18.1595 12.4095 18.1859 12.4095 18.6752V19.1909H13.8922H15.375V12.2932V5.39543H13.8922H12.4095V5.91115C12.4095 6.39786 12.3878 6.42687 12.0238 6.42687C11.7822 6.42687 11.419 6.25964 11.0515 5.97922C9.88779 5.0909 7.78719 4.76599 6.0917 5.21222ZM36.7781 6.60969C36.7781 7.27754 36.8133 7.91575 36.8563 8.02792C36.9249 8.20661 37.3477 8.23189 40.2732 8.23189H43.6116V8.60075C43.6116 8.91535 43.1095 9.44886 40.2038 12.2226L36.7959 15.4755L36.8192 17.301L36.8426 19.1265L42.0967 19.1601L47.3507 19.1938V17.8386V16.4834H43.9339H40.5172V16.1142C40.5172 15.7344 40.3758 15.8786 46.2833 10.2434L47.3507 9.22517V7.3103V5.39543H42.0644H36.7781V6.60969ZM9.71992 8.38737C10.6952 8.83386 11.3001 9.40553 11.7499 10.3055C12.8456 12.4984 12.0271 14.9365 9.79495 16.1277C9.34021 16.3705 9.04907 16.4183 8.02572 16.4186C6.98973 16.419 6.70298 16.3707 6.16609 16.1065C5.35793 15.7088 4.65086 15.0015 4.19494 14.1348C3.8761 13.5287 3.83651 13.3185 3.83638 12.2287C3.83612 11.1989 3.88305 10.9157 4.13138 10.4502C5.28509 8.28681 7.61867 7.42556 9.71992 8.38737ZM30.3534 8.69127C31.139 8.95119 31.9872 9.70891 32.4556 10.5696C32.7576 11.1246 32.8411 11.4594 32.8844 12.2916C32.9487 13.5265 32.7906 14.1864 32.2313 15.0151C30.5084 17.5688 26.7536 17.3393 25.3632 14.5953C25.0188 13.9159 24.9806 13.7179 24.9806 12.6155C24.9806 11.1694 25.2538 10.4661 26.1719 9.54787C27.285 8.43482 28.701 8.14473 30.3534 8.69127ZM57.0208 18.9331V21.3827H55.985H54.9491L54.9857 22.7687L55.0223 24.1547L56.0216 24.1924L57.0208 24.23V29.7041V35.1782H60.0507H63.0808V33.76V32.3417H61.5335H59.9863V28.2846V24.2274L61.5013 24.1911L63.0163 24.1547L63.0529 22.7687L63.0895 21.3827H61.5379H59.9863V18.9331V16.4834H58.5036H57.0208V18.9331ZM6.92978 21.1188C3.39955 21.8879 1.06326 24.7399 1.06326 28.2805C1.06326 31.6487 3.17959 34.3995 6.47851 35.3194C7.22942 35.5288 9.3442 35.5276 10.0887 35.3173C12.4782 34.6424 14.3023 33.029 15.0979 30.8865C15.5757 29.5998 15.6097 29.6342 13.86 29.6345L12.3451 29.6349L11.9662 30.3599C11.2281 31.7724 9.78387 32.5516 8.10579 32.443C6.48624 32.3382 5.25401 31.5437 4.58175 30.1707C4.27218 29.5384 4.22421 29.2858 4.22331 28.2805C4.22228 27.2693 4.26857 27.0256 4.58317 26.3848C6.05689 23.3841 10.2887 23.2247 11.9163 26.1088L12.3052 26.7978H13.84C15.6045 26.7978 15.5548 26.845 15.1196 25.58C14.4522 23.6403 12.8337 22.0871 10.751 21.3877C9.83196 21.0793 7.77597 20.9346 6.92978 21.1188ZM47.0928 21.1214C46.2037 21.2847 45.1051 21.7381 44.5723 22.1613C44.3081 22.3713 43.9548 22.5431 43.7873 22.5431C43.5122 22.5431 43.4827 22.4867 43.4827 21.9629V21.3827H42H40.5172V30.7302V40.0776H42H43.4827V37.1122V34.1468H43.8062C43.984 34.1468 44.3673 34.3189 44.6578 34.5295C46.993 36.2209 50.6553 35.7701 52.9051 33.5145C54.413 32.0028 55.0316 30.2809 54.9237 27.8961C54.8295 25.8163 54.3039 24.5343 52.9986 23.2011C51.4556 21.6249 49.0204 20.7673 47.0928 21.1214ZM70.1077 21.0786C66.459 21.6318 63.9702 24.5227 63.9629 28.2161C63.9586 30.4204 64.6068 32.0717 66.0386 33.5034C68.3422 35.8069 71.9375 36.1992 74.8893 34.4694C77.9177 32.6947 79.0561 28.2626 77.3632 24.837C76.5832 23.2588 74.7447 21.7768 72.9918 21.3134C72.2263 21.1111 70.7081 20.9874 70.1077 21.0786ZM17.3445 28.2482L17.3735 35.1138L18.8884 35.1501L20.4034 35.1863V29.7028V24.2192H22.4019H24.4004V22.801V21.3827H20.8579H17.3155L17.3445 28.2482ZM25.3029 21.478C25.3029 21.5304 26.3619 24.6341 27.656 28.375L30.0091 35.1767L30.9438 35.1775C31.458 35.1778 31.8786 35.2249 31.8786 35.282C31.8786 35.3391 31.7427 35.7888 31.5767 36.2813L31.2748 37.1766L29.3849 37.2123L27.4949 37.248V38.6651V40.0823L30.473 40.0477L33.4513 40.0131L36.5964 30.7302C38.3261 25.6246 39.7418 21.4327 39.7425 21.4149C39.7431 21.3973 39.0617 21.3827 38.2283 21.3827H36.7128L34.8649 26.5181C33.8484 29.3425 32.9717 31.7264 32.9167 31.8154C32.8615 31.9046 32.6842 31.958 32.5225 31.934C32.2594 31.895 32.0322 31.3385 30.3586 26.6367L28.4885 21.3827H26.8958C26.0197 21.3827 25.3029 21.4256 25.3029 21.478ZM49.736 24.5075C52.85 26.1211 52.8308 30.5701 49.7031 32.1097C48.9382 32.4863 48.7202 32.5345 47.8047 32.5298C47.0356 32.5256 46.6159 32.4542 46.1677 32.2511C45.3582 31.8843 44.4376 31.013 44.021 30.2196C43.7222 29.6505 43.6797 29.4176 43.678 28.3449C43.6764 27.3036 43.7234 27.0235 43.9924 26.4755C44.4177 25.6084 45.3876 24.6865 46.2215 24.3566C47.2005 23.9695 48.8328 24.0396 49.736 24.5075ZM72.7061 24.3666C73.6004 24.7011 74.5803 25.6277 74.9727 26.5096C75.383 27.4318 75.4286 28.8587 75.0773 29.7892C74.7099 30.7629 73.8338 31.7211 72.9058 32.1642C72.3041 32.4515 71.9829 32.517 71.1365 32.5252C70.2161 32.534 70.0072 32.4884 69.238 32.1097C67.2922 31.1519 66.399 28.9302 67.1196 26.8402C67.5033 25.7276 68.717 24.5508 69.8033 24.2381C70.5944 24.0106 71.91 24.0687 72.7061 24.3666Z" fill="#C7CFD2" fill-opacity="0.55"/>
</g>
<defs>
<clipPath id="clip0_821_2867">
<rect width="78.1856" height="40.5759" fill="white" transform="translate(0.814453)"/>
</clipPath>
</defs>
</svg>
