<svg width="351" height="234" viewBox="0 0 351 234" fill="none" xmlns="http://www.w3.org/2000/svg">
<path opacity="0.06" d="M21 130L164.738 58.8331C170.89 55.7875 178.11 55.7875 184.262 58.8331L328 130" stroke="white" stroke-width="2" stroke-linecap="round"/>
<path opacity="0.5" d="M59 111.25L101.5 90" stroke="url(#paint0_linear_828_4200)" stroke-width="2" stroke-linecap="round"/>
<path opacity="0.06" d="M21 132L164.636 204.052C170.843 207.166 178.157 207.166 184.364 204.052L328 132" stroke="white" stroke-width="2" stroke-linecap="round"/>
<path opacity="0.5" d="M228 182.5L287 153" stroke="url(#paint1_linear_828_4200)" stroke-width="2" stroke-linecap="round"/>
<path d="M328.5 107L350 119.25V143.75L328.5 156L307 143.75V119.25L328.5 107Z" fill="url(#paint2_linear_828_4200)" fill-opacity="0.2"/>
<path d="M350 119.25L328.5 107L307 119.25M350 119.25V143.75L328.5 156M350 119.25L328.5 131.681M328.5 156L307 143.75V119.25M328.5 156V131.681M307 119.25L328.5 131.681" stroke="white" stroke-width="2" stroke-linejoin="round"/>
<path d="M22.5 107L44 119.25V143.75L22.5 156L1 143.75V119.25L22.5 107Z" fill="url(#paint3_linear_828_4200)" fill-opacity="0.2"/>
<path d="M44 119.25L22.5 107L1 119.25M44 119.25V143.75L22.5 156M44 119.25L22.5 131.681M22.5 156L1 143.75V119.25M22.5 156V131.681M1 119.25L22.5 131.681" stroke="white" stroke-width="2" stroke-linejoin="round"/>
<path d="M174.5 183L196 195.5V220.5L174.5 233L153 220.5V195.5L174.5 183Z" fill="url(#paint4_linear_828_4200)" fill-opacity="0.2"/>
<path d="M196 195.5L174.5 183L153 195.5M196 195.5V220.5L174.5 233M196 195.5L174.5 208.185M174.5 233L153 220.5V195.5M174.5 233V208.185M153 195.5L174.5 208.185" stroke="white" stroke-width="2" stroke-linejoin="round"/>
<path d="M128 28.4981L175.5 55.9979L175.5 110.997L128 83.4976L128 28.4981Z" fill="url(#paint5_linear_828_4200)" fill-opacity="0.2"/>
<path d="M175.5 56.0005L223 28.5008V83.5003L175.5 111L175.5 56.0005Z" fill="url(#paint6_linear_828_4200)" fill-opacity="0.2"/>
<path d="M175.5 1L223 28.5008L175.5 56.0005L128 28.4997L175.5 1Z" fill="url(#paint7_linear_828_4200)" fill-opacity="0.2"/>
<path d="M175.5 56.0005L223 28.5008M175.5 56.0005L175.5 111L223 83.5003V28.5008M175.5 56.0005L128 28.4997L175.5 1L223 28.5008M128 28.4981L175.5 55.9979L175.5 110.997L128 83.4976L128 28.4981Z" stroke="white" stroke-width="2" stroke-linejoin="round"/>
<defs>
<linearGradient id="paint0_linear_828_4200" x1="100" y1="88.5" x2="67" y2="107" gradientUnits="userSpaceOnUse">
<stop stop-color="white"/>
<stop offset="1" stop-color="white" stop-opacity="0"/>
</linearGradient>
<linearGradient id="paint1_linear_828_4200" x1="228" y1="182.5" x2="275.5" y2="159" gradientUnits="userSpaceOnUse">
<stop stop-color="white"/>
<stop offset="1" stop-color="white" stop-opacity="0"/>
</linearGradient>
<linearGradient id="paint2_linear_828_4200" x1="328.747" y1="155.898" x2="328.747" y2="107.122" gradientUnits="userSpaceOnUse">
<stop stop-color="white"/>
<stop offset="1" stop-color="white" stop-opacity="0"/>
</linearGradient>
<linearGradient id="paint3_linear_828_4200" x1="22.7472" y1="155.898" x2="22.7472" y2="107.122" gradientUnits="userSpaceOnUse">
<stop stop-color="white"/>
<stop offset="1" stop-color="white" stop-opacity="0"/>
</linearGradient>
<linearGradient id="paint4_linear_828_4200" x1="174.747" y1="232.896" x2="174.747" y2="183.124" gradientUnits="userSpaceOnUse">
<stop stop-color="white"/>
<stop offset="1" stop-color="white" stop-opacity="0"/>
</linearGradient>
<linearGradient id="paint5_linear_828_4200" x1="176.046" y1="110.77" x2="176.046" y2="1.27375" gradientUnits="userSpaceOnUse">
<stop stop-color="white"/>
<stop offset="1" stop-color="white" stop-opacity="0"/>
</linearGradient>
<linearGradient id="paint6_linear_828_4200" x1="176.046" y1="110.77" x2="176.046" y2="1.27375" gradientUnits="userSpaceOnUse">
<stop stop-color="white"/>
<stop offset="1" stop-color="white" stop-opacity="0"/>
</linearGradient>
<linearGradient id="paint7_linear_828_4200" x1="176.046" y1="110.77" x2="176.046" y2="1.27375" gradientUnits="userSpaceOnUse">
<stop stop-color="white"/>
<stop offset="1" stop-color="white" stop-opacity="0"/>
</linearGradient>
</defs>
</svg>
