<svg width="21" height="22" viewBox="0 0 21 22" fill="none" xmlns="http://www.w3.org/2000/svg">
<g clip-path="url(#clip0_821_2853)">
<path d="M-8.06738 -1.18729C0.935609 5.78629 19.4053 5.78629 28.4082 -1.18729V-4.42578C19.4053 4.87 0.935609 4.87 -8.06738 -4.42578C-8.06738 -3.34862 -8.06738 -2.27145 -8.06738 -1.18729Z" fill="white"/>
<path d="M-8.06738 5.65646C0.935609 8.5662 19.4053 8.5662 28.4082 5.65646V2.41797C19.4053 7.64291 0.935609 7.64291 -8.06738 2.41797C-8.06738 3.49513 -8.06738 4.5723 -8.06738 5.65646Z" fill="white"/>
<path d="M-8.06738 12.4963C0.935609 11.3352 19.4053 11.3352 28.4082 12.4963V9.25781C19.4053 10.4189 0.935609 10.4189 -8.06738 9.25781C-8.06738 10.335 -8.06738 11.4121 -8.06738 12.4963Z" fill="white"/>
<path d="M-8.06738 19.3427C0.935609 14.1177 19.4053 14.1177 28.4082 19.3427V16.1042C19.4053 13.1944 0.935609 13.1944 -8.06738 16.1042C-8.06738 17.1813 -8.06738 18.2585 -8.06738 19.3427Z" fill="white"/>
<path d="M-8.06738 26.1835C0.935609 16.8877 19.4053 16.8877 28.4082 26.1835V22.945C19.4053 15.9714 0.935609 15.9714 -8.06738 22.945C-8.06738 24.0222 -8.06738 25.0994 -8.06738 26.1835Z" fill="white"/>
</g>
<defs>
<clipPath id="clip0_821_2853">
<rect width="20.3422" height="20.3738" fill="white" transform="translate(0 0.695312)"/>
</clipPath>
</defs>
</svg>
