<svg width="116" height="22" viewBox="0 0 116 22" fill="none" xmlns="http://www.w3.org/2000/svg">
<g clip-path="url(#clip0_821_2869)">
<mask id="mask0_821_2869" style="mask-type:luminance" maskUnits="userSpaceOnUse" x="0" y="0" width="116" height="22">
<path d="M115.794 0.902344H0V21.7185H115.794V0.902344Z" fill="white"/>
</mask>
<g mask="url(#mask0_821_2869)">
<path d="M59.6566 8.0715C59.4864 8.21443 59.3211 8.41931 58.9163 8.22634V0.950937C57.7638 0.903291 56.7383 0.865175 55.7248 0.96523C55.5067 2.25642 55.5474 20.4091 55.7751 21.3168C56.779 21.3573 57.7949 21.443 58.8252 21.2644C58.8515 20.7261 58.8731 20.2543 58.9018 19.6564C59.6709 20.0995 60.107 20.6856 60.7612 21.0024C63.1067 22.1387 66.1112 21.6861 68.1167 19.8971C70.5702 17.7077 71.1692 13.7484 69.7676 10.6896C68.1095 7.07572 63.1474 5.15561 59.6566 8.0715ZM61.3361 18.2199C59.6182 17.5481 58.5712 15.4541 58.8755 13.3982C59.2612 10.8135 61.729 9.22927 64.2568 9.95109C65.9963 10.4466 67.072 12.0499 67.0769 14.1605C67.1799 17.622 64.0891 19.2966 61.3337 18.2199H61.3361Z" fill="#C7CFD2" fill-opacity="0.55"/>
<path d="M103.208 8.84631C101.371 10.6783 100.791 12.9795 101.217 15.5143C101.708 18.4301 103.35 20.4836 106.215 21.284C109.21 22.1226 111.999 21.6485 114.172 19.19C114.776 18.5087 115.265 17.7393 115.346 16.7077H112.047C110.902 18.7755 108.798 18.8922 107.272 18.4563C105.693 18.0061 104.687 16.6529 104.67 14.964H115.471C115.629 13.618 115.519 12.4816 115.181 11.3786C113.681 6.49264 107.114 4.94894 103.208 8.84631ZM104.847 12.5388C105.238 10.5615 106.608 9.57052 108.753 9.65866C110.576 9.73251 111.793 10.8021 111.966 12.5388H104.847Z" fill="#C7CFD2" fill-opacity="0.55"/>
<path d="M84.5793 18.2577C84.3948 17.8885 84.4786 17.5264 84.4763 17.1762C84.4666 15.3539 84.5074 13.529 84.4618 11.7066C84.4116 9.64118 83.5706 7.99266 81.5436 7.21843C78.968 6.23694 76.4473 6.37987 74.1736 8.04269C73.0524 8.86218 72.4893 10.0628 72.3071 11.5113H75.4531C76.3851 9.67929 78.1174 8.99796 79.9407 9.70312C80.5948 9.95564 81.0285 10.4369 81.0572 11.111C81.0835 11.7757 80.5996 12.1688 79.9887 12.3855C79.8017 12.4522 79.6172 12.5261 79.4256 12.5761C78.8841 12.7143 78.3329 12.7834 77.7771 12.8453C76.3491 13.0002 74.9284 13.2098 73.692 14.034C71.5692 15.4515 71.332 18.3459 73.0236 20.2446C74.5642 21.9741 79.1691 22.0909 80.6811 20.2255C80.9111 19.942 81.0956 19.5585 81.5053 19.4323C82.169 20.9997 82.8182 21.6931 86.0672 21.2118C86.1199 20.3018 86.1894 19.3799 86.0265 18.4841C85.5089 18.2411 84.9962 18.4793 84.5793 18.2577ZM76.7684 18.7819C76.4473 18.7175 76.1503 18.6246 75.8867 18.4483C74.9187 17.8028 74.9044 16.6498 75.8676 15.9923C76.6079 15.4872 77.4776 15.3086 78.3474 15.2227C79.2674 15.1323 80.1444 14.9417 81.0428 14.4557C81.7712 17.605 79.0087 19.225 76.7684 18.7819Z" fill="#C7CFD2" fill-opacity="0.55"/>
<path d="M23.2785 6.65234C19.8714 6.65234 15.9014 9.12512 15.8655 14.0707C15.8319 18.859 19.366 21.6487 23.4462 21.6462C27.62 21.6439 30.9001 18.2706 30.857 14.2589C30.9647 9.89936 27.5217 6.6571 23.2785 6.65472V6.65234ZM21.3521 18.03C19.6846 17.1343 19.1958 15.5953 19.2917 13.8182C19.3922 11.9481 20.389 10.5021 21.9871 9.98989C23.6499 9.45626 25.1402 9.81122 26.3478 11.0857C27.1744 11.9552 27.5314 13.0249 27.493 14.459C27.4858 17.8727 24.0118 19.457 21.3546 18.0324L21.3521 18.03Z" fill="#C7CFD2" fill-opacity="0.55"/>
<path d="M53.069 11.5738C52.9659 10.0277 52.2735 8.67932 50.994 7.71213C48.9838 6.19463 45.941 6.3066 44.0218 7.93606C43.8157 8.10996 43.6864 8.38869 43.3677 8.42204C43.0635 7.9837 43.4755 7.39053 43.0083 6.94028C42.0284 6.9236 41.0148 6.85452 40.0254 6.97124C39.7786 9.78469 39.8888 20.4786 40.1738 21.3529C41.1706 21.3267 42.1889 21.4387 43.2503 21.2814C43.2503 20.7549 43.2503 20.3619 43.2503 19.9689C43.2503 17.9082 43.2503 15.8499 43.2503 13.7893C43.2503 13.1532 43.2791 12.5219 43.5307 11.9216C44.029 10.7328 44.9011 9.98719 46.195 9.81566C47.4217 9.65366 48.4807 9.96813 49.2474 11.0163C49.7458 11.6976 49.8248 12.4742 49.8273 13.2747C49.8296 15.5712 49.8224 17.8701 49.8368 20.1666C49.8368 20.5453 49.7074 20.9646 50.062 21.3244C51.0253 21.3696 52.0147 21.4006 53.1649 21.2957C53.1241 17.9796 53.2822 14.7731 53.0666 11.5738H53.069Z" fill="#C7CFD2" fill-opacity="0.55"/>
<path d="M96.6548 13.146C96.1301 12.9673 95.5815 12.8625 95.0255 12.791C94.0025 12.6576 92.9745 12.5147 91.9707 12.2883C91.1489 12.1025 90.6792 11.5236 90.696 10.9233C90.7128 10.2777 91.1177 9.7965 92.0233 9.62259C93.9665 9.2462 95.1621 9.36056 96.3218 11.3092C97.1196 11.3092 97.9534 11.314 98.7873 11.3045C98.9382 11.3045 99.0891 11.2497 99.2952 11.2116C99.0915 9.78698 98.5237 8.63397 97.3353 7.80732C94.9896 6.17548 91.1705 6.26839 88.9302 8.04079C88.7146 8.2123 88.5109 8.41003 88.3408 8.62443C86.6133 10.8399 87.567 13.9393 89.9964 14.8182C91.2807 15.2828 92.6177 15.4425 93.9473 15.6616C94.496 15.7521 95.0519 15.8212 95.5599 16.0594C96.65 16.5716 96.7506 17.7175 95.766 18.4036C95.5072 18.5847 95.2077 18.6871 94.8962 18.7728C93.897 19.0516 92.9267 18.9562 91.9587 18.6489C91.0626 18.3631 90.569 17.6675 90.2552 16.9147H87.21C87.2675 18.5775 88.1276 20.0592 89.7377 20.8192C92.2414 21.996 94.8578 22.0294 97.3569 20.8478C99.0532 20.0449 99.8055 18.5417 99.609 16.636C99.4222 14.8039 98.3368 13.7153 96.6548 13.1436V13.146Z" fill="#C7CFD2" fill-opacity="0.55"/>
<path d="M6.99456 9.80976C8.73403 9.62393 9.9967 10.3767 10.8904 11.8132C11.0342 12.0419 11.0581 12.3445 11.3241 12.4993C12.3879 12.4993 13.4517 12.4993 14.5178 12.4993C14.3262 9.09031 10.8281 6.6342 7.52886 6.6485C3.4725 6.66518 0.0917846 9.83358 -0.00165804 13.8715C-0.0927047 17.8809 2.58838 21.3089 6.81007 21.6019C10.8113 21.8806 14.192 19.3888 14.5131 15.8965H11.2282C11.0653 16.1918 10.9623 16.4039 10.8401 16.6039C9.92242 18.0881 8.48485 18.7813 6.78851 18.4978C5.07779 18.212 4.0619 17.1376 3.55635 15.5343C3.26165 14.5957 3.30957 13.6571 3.57791 12.7256C4.03554 11.1438 5.39885 9.97889 6.99216 9.80736L6.99456 9.80976Z" fill="#C7CFD2" fill-opacity="0.55"/>
<path d="M37.1107 6.90863C35.2538 6.93245 33.5599 6.87767 31.8564 6.94199C31.7749 7.99495 31.7773 8.89305 31.8396 9.77448C32.4841 10.0603 33.1094 9.7864 33.8666 10.0794C33.8666 11.9447 33.857 13.8029 33.869 15.661C33.881 17.5407 33.8138 19.4226 33.9097 21.307H37.1682V14.1506C37.1682 12.9214 37.1778 11.6946 37.1659 10.4653C37.1539 9.29804 37.2282 8.12597 37.1107 6.90625V6.90863Z" fill="#C7CFD2" fill-opacity="0.55"/>
<path d="M35.4652 1.02847C34.2864 1.0642 33.3999 1.94087 33.4023 3.06292C33.4047 4.24689 34.3463 5.17836 35.5323 5.17121C36.7039 5.16644 37.6863 4.19925 37.6815 3.05577C37.6767 1.9242 36.656 0.990355 35.4652 1.02847Z" fill="#C7CFD2" fill-opacity="0.55"/>
</g>
</g>
<defs>
<clipPath id="clip0_821_2869">
<rect width="115.794" height="20.8161" fill="white" transform="translate(0 0.894531)"/>
</clipPath>
</defs>
</svg>
