<svg width="189" height="33" viewBox="0 0 189 33" fill="none" xmlns="http://www.w3.org/2000/svg">
<mask id="mask0_821_2884" style="mask-type:luminance" maskUnits="userSpaceOnUse" x="0" y="0" width="189" height="33">
<path d="M188.266 0.953125H0.224609V32.6221H188.266V0.953125Z" fill="white"/>
</mask>
<g mask="url(#mask0_821_2884)">
<path d="M44.2641 11.5664C45.1993 11.5664 46.0628 11.7991 46.8583 12.2719C47.6501 12.741 48.2771 13.3775 48.7429 14.1848C49.2051 14.9885 49.438 15.865 49.438 16.8178C49.438 17.3888 49.352 17.9416 49.1801 18.4726C49.0081 19.0072 48.7609 19.4909 48.442 19.92C48.1231 20.3492 47.7504 20.7274 47.3276 21.0511C46.9048 21.3747 46.4283 21.6257 45.9015 21.8002C45.3748 21.9748 44.8302 22.0621 44.2677 22.0621H42.082V20.2474H44.2677C44.6332 20.2474 44.9879 20.1892 45.3319 20.0764C45.6758 19.9636 45.9876 19.7964 46.2635 19.5818C46.5394 19.3673 46.783 19.12 46.9944 18.8399C47.2058 18.5599 47.3671 18.2471 47.4817 17.8944C47.5964 17.5452 47.6501 17.1852 47.6501 16.8143C47.6501 15.865 47.3205 15.0541 46.6611 14.3848C46.0019 13.7157 45.2029 13.3811 44.2677 13.3811H42.082V11.5664H44.2677H44.2641Z" fill="#C7CFD2" fill-opacity="0.55"/>
<path d="M59.839 13.3811H52.5547V11.5664H59.839V13.3811ZM58.6136 17.7307H52.5583V15.9014H58.6136V17.7307ZM59.839 22.0621H52.5547V20.2474H59.839V22.0621Z" fill="#C7CFD2" fill-opacity="0.55"/>
<path d="M64.7382 20.2474H70.2345V22.0621H62.9502V11.5664H64.7382V20.2474Z" fill="#C7CFD2" fill-opacity="0.55"/>
<path d="M77.6065 11.5664C78.445 11.5664 79.158 11.8646 79.7492 12.4646C80.3404 13.0647 80.6342 13.7884 80.6342 14.6394C80.6342 15.4904 80.3404 16.2141 79.7492 16.8143C79.158 17.4143 78.445 17.7125 77.6065 17.7125H75.1414V22.0621H73.3535V15.8977H77.6065C77.9505 15.8977 78.2444 15.7741 78.4844 15.5305C78.7245 15.2868 78.8463 14.9885 78.8463 14.6394C78.8463 14.2903 78.7245 13.9921 78.4844 13.7484C78.2444 13.5047 77.9505 13.3811 77.6065 13.3811H73.3535V11.5664H77.6065Z" fill="#C7CFD2" fill-opacity="0.55"/>
<path d="M89.8662 11.5664H91.6542V22.0621H89.8662V17.7307H85.5379V22.0621H83.75V11.5664H85.5379V15.8977H89.8662V11.5664Z" fill="#C7CFD2" fill-opacity="0.55"/>
<path d="M96.5585 22.0621H94.7705V11.5664H96.5585V22.0621Z" fill="#C7CFD2" fill-opacity="0.55"/>
<path d="M113.266 11.5664H115.172L111.406 22.0621H109.5L105.734 11.5664H107.641L110.445 19.4073L113.269 11.5664H113.266Z" fill="#C7CFD2" fill-opacity="0.55"/>
<path d="M125.556 13.3811H118.271V11.5664H125.556V13.3811ZM124.33 17.7307H118.275V15.9014H124.33V17.7307ZM125.556 22.0621H118.271V20.2474H125.556V22.0621Z" fill="#C7CFD2" fill-opacity="0.55"/>
<path d="M134.497 11.5664H136.286V22.0621H134.497L130.463 15.1486V22.0621H128.675V11.5664H130.463L134.497 18.4944V11.5664Z" fill="#C7CFD2" fill-opacity="0.55"/>
<path d="M139.385 11.5664H146.67V13.3811H143.922V22.0621H142.133V13.3811H139.385V11.5664Z" fill="#C7CFD2" fill-opacity="0.55"/>
<path d="M155.281 11.5664H157.069V18.3598C157.069 19.389 156.714 20.2655 156.004 20.982C155.295 21.7021 154.439 22.0621 153.435 22.0621C152.433 22.0621 151.572 21.7021 150.859 20.982C150.146 20.2619 149.788 19.389 149.788 18.3598V11.5664H151.576V18.3598C151.576 18.8799 151.759 19.3236 152.124 19.6946C152.49 20.0655 152.926 20.2509 153.439 20.2509C153.952 20.2509 154.385 20.0655 154.747 19.6946C155.106 19.3236 155.285 18.8799 155.285 18.3598V11.5664H155.281Z" fill="#C7CFD2" fill-opacity="0.55"/>
<path d="M167.468 14.6394C167.468 15.2286 167.313 15.7705 167.009 16.2578C166.705 16.7487 166.3 17.1233 165.798 17.3815L167.468 22.0584H165.562L164.01 17.727H160.184V15.8977H164.436C164.781 15.8977 165.074 15.7741 165.314 15.5305C165.555 15.2868 165.676 14.9922 165.676 14.6467C165.676 14.3012 165.555 14.003 165.314 13.7557C165.074 13.5047 164.781 13.3811 164.436 13.3811H160.184V11.5664H164.436C165.275 11.5664 165.988 11.8646 166.579 12.4646C167.17 13.0647 167.464 13.7884 167.464 14.6394H167.468Z" fill="#C7CFD2" fill-opacity="0.55"/>
<path d="M177.867 13.3811H170.583V11.5664H177.867V13.3811ZM176.642 17.7307H170.586V15.9014H176.642V17.7307ZM177.867 22.0621H170.583V20.2474H177.867V22.0621Z" fill="#C7CFD2" fill-opacity="0.55"/>
<path d="M185.236 15.9014C186.074 15.9014 186.787 16.2032 187.379 16.8069C187.97 17.4106 188.264 18.138 188.264 18.989C188.264 19.84 187.967 20.5638 187.379 21.1638C186.787 21.7638 186.074 22.0621 185.236 22.0621H180.982V20.2474H185.236C185.58 20.2474 185.873 20.1237 186.114 19.88C186.353 19.6364 186.475 19.3382 186.475 18.989C186.475 18.6399 186.353 18.3417 186.114 18.098C185.873 17.8544 185.58 17.7307 185.236 17.7307H184.011C183.172 17.7307 182.459 17.4288 181.868 16.8215C181.276 16.2178 180.982 15.4904 180.982 14.6394C180.982 13.7884 181.276 13.0647 181.868 12.4646C182.459 11.8646 183.172 11.5664 184.011 11.5664H187.658V13.3811H184.011C183.673 13.3811 183.383 13.5047 183.14 13.7557C182.893 14.0066 182.771 14.3012 182.771 14.6467C182.771 14.9922 182.893 15.2868 183.14 15.5305C183.387 15.7741 183.677 15.8977 184.011 15.8977H185.236V15.9014Z" fill="#C7CFD2" fill-opacity="0.55"/>
<path d="M20.5371 4.17166C20.186 4.33168 19.8277 4.52444 19.4587 4.76083C19.2902 4.86265 19.1325 4.96812 18.9785 5.07359C18.7385 4.59717 17.6994 2.77151 15.9401 2.77151H15.9293C15.4205 2.80424 13.1023 3.12064 12.418 6.24826L12.4108 6.27372C12.332 6.59739 12.271 6.94289 12.2102 7.30656C12.0417 8.30667 11.8518 9.44135 11.1101 10.5178C10.1212 11.9725 8.59126 12.6162 7.62383 12.889C7.4841 12.6781 7.34436 12.4744 7.2082 12.2816C7.00755 11.9943 6.81407 11.718 6.65284 11.4452L6.6385 11.4197C6.60625 11.3689 6.57759 11.3179 6.54535 11.267C6.67075 11.2488 8.63067 10.9615 9.63392 9.48135C10.1499 8.73581 10.2897 7.89572 10.4401 7.00471C10.5046 6.62649 10.569 6.23371 10.6658 5.84458C11.429 2.40056 13.9372 1.05859 15.8541 0.953125H15.8899C15.8899 0.953125 15.9257 0.953125 15.9401 0.953125C18.6237 0.953125 20.0964 3.32793 20.5371 4.17166ZM5.2017 13.7291C5.71766 14.4674 6.20137 15.162 6.35903 16.0567C6.6815 17.8241 5.49551 19.4316 5.41669 19.537C5.47402 19.5515 5.52776 19.5661 5.58867 19.5806L5.61375 19.588C5.92189 19.6679 6.24436 19.7224 6.58476 19.7806C6.82123 19.8207 7.0613 19.8644 7.30853 19.9116C7.80299 19.0279 8.43718 17.4749 8.12188 15.7366C7.89973 14.4455 7.24403 13.5072 6.66359 12.6781C6.45219 12.3762 6.25512 12.0926 6.08313 11.8052L6.0688 11.7834C4.37403 9.08131 5.79291 7.19383 6.12971 6.80468C7.37303 5.53545 9.38669 6.08097 9.88832 6.24463C9.92414 6.05915 9.96356 5.87003 10.0101 5.67729C10.1069 5.24451 10.2251 4.85175 10.3613 4.48443C9.45836 4.20076 6.73166 3.5716 4.83265 5.54272L4.80757 5.57182C3.52484 7.02289 2.68641 9.76865 4.54601 12.7472C4.75025 13.0926 4.97598 13.4164 5.19454 13.7291H5.2017ZM9.64468 21.5699C8.58768 20.8172 7.46977 20.6244 6.48085 20.4535C6.12254 20.3917 5.78216 20.3335 5.46327 20.2498L5.43818 20.2425C2.35678 19.548 2.04505 17.195 2.0128 16.6786C2.00564 14.8856 3.8079 13.8309 4.28087 13.5836C4.17696 13.4272 4.07305 13.2636 3.97273 13.0963C3.73982 12.7217 3.54993 12.358 3.39227 12.0016C2.55743 12.4526 0.196204 13.9655 0.224868 16.7222V16.7585C0.328776 18.7042 1.65092 21.25 5.04046 22.0209C5.42385 22.1191 5.81082 22.1846 6.18346 22.25C7.0613 22.4028 7.88898 22.5446 8.6235 23.0683C10.0818 24.0866 10.3649 26.0723 10.3828 26.2032C10.433 26.1741 10.4831 26.145 10.5332 26.1123L10.5584 26.0977C10.8306 25.9305 11.0994 25.7377 11.3825 25.534C11.576 25.3958 11.7766 25.2504 11.9844 25.1122C11.7157 24.1339 11.0851 22.5774 9.64825 21.5736L9.64468 21.5699ZM14.7863 24.603C13.5144 24.8285 12.5899 25.494 11.773 26.0832C11.4756 26.2978 11.1961 26.4978 10.9131 26.6724L10.8916 26.687C8.22937 28.4071 6.36978 26.9669 5.98639 26.6251C4.73232 25.3631 5.27337 23.3193 5.4346 22.8101C5.25187 22.7738 5.06555 22.7338 4.87565 22.6865C4.44927 22.5883 4.0623 22.4682 3.70041 22.3301C3.42093 23.2465 2.80107 26.0141 4.74307 27.9416L4.77174 27.9671C5.603 28.7271 6.86782 29.3308 8.36195 29.3308C9.43327 29.3308 10.6192 29.0181 11.8447 28.2289C12.185 28.0216 12.5039 27.7925 12.8121 27.5706C13.5394 27.047 14.2238 26.556 15.1052 26.396C16.8466 26.0686 18.4303 27.2724 18.5342 27.3524C18.5485 27.2942 18.5629 27.2397 18.5771 27.1778L18.5844 27.1524C18.6631 26.836 18.7169 26.5051 18.7778 26.1559C18.8172 25.9196 18.8566 25.6795 18.9068 25.4323C18.0362 24.9303 16.5062 24.2866 14.7934 24.6067L14.7863 24.603ZM25.0052 22.1592L24.9908 22.1336C24.826 21.8572 24.6361 21.5845 24.4354 21.2972C24.2993 21.1008 24.1596 20.8972 24.0198 20.6898C23.056 20.9626 21.5225 21.6027 20.5336 23.0611C19.7918 24.1339 19.602 25.2686 19.4335 26.2723C19.3726 26.636 19.3152 26.9815 19.2329 27.3052L19.2257 27.3306C18.5413 30.4582 16.2232 30.7746 15.7144 30.8074C13.9515 30.8183 12.9052 28.9817 12.6652 28.5052C12.5111 28.6107 12.3499 28.7162 12.185 28.8181C11.8267 29.0472 11.4685 29.24 11.103 29.4072C11.5401 30.2473 13.0127 32.6293 15.7 32.6293C15.7179 32.6293 15.7323 32.6293 15.7502 32.6293H15.786C17.7029 32.5239 20.211 31.182 20.9706 27.7415C21.0674 27.3524 21.1319 26.9597 21.1963 26.5815C21.3469 25.6905 21.4866 24.8503 22.0026 24.1048C23.0058 22.6246 24.9657 22.3373 25.0912 22.3191C25.0625 22.2682 25.0302 22.2173 24.9979 22.1664L25.0052 22.1592ZM27.094 20.8244C26.8898 20.4789 26.6641 20.1552 26.4456 19.8425C25.9295 19.1042 25.4459 18.4097 25.2882 17.515C24.9657 15.7475 26.1517 14.1401 26.2305 14.0346C26.1732 14.02 26.1195 14.0055 26.0586 13.991L26.0335 13.9836C25.7254 13.9037 25.4028 13.8491 25.0625 13.7909C24.826 13.751 24.5859 13.7073 24.3387 13.66C23.8443 14.5438 23.2101 16.0966 23.5254 17.835C23.7475 19.1261 24.4032 20.0644 24.9836 20.8935C25.195 21.1954 25.3921 21.4791 25.5641 21.7664L25.5784 21.7882C27.2732 24.4903 25.8543 26.3778 25.5175 26.7669C24.2742 28.0398 22.2606 27.4907 21.7589 27.327C21.7231 27.5124 21.6837 27.7015 21.6371 27.8943C21.5404 28.3271 21.4221 28.7199 21.2859 29.0872C21.6908 29.2144 22.4612 29.4109 23.3641 29.4109C24.4677 29.4109 25.7683 29.1126 26.8146 28.0288L26.8397 27.9998C28.1224 26.5487 28.9608 23.803 27.1012 20.8244H27.094ZM31.4223 16.8131C31.3221 14.8674 29.9998 12.3217 26.6068 11.5507C26.2234 11.4525 25.8364 11.387 25.4638 11.3216C24.5859 11.1688 23.7583 11.0269 23.0237 10.5033C21.5654 9.48499 21.2824 7.49931 21.2644 7.36838C21.2143 7.39748 21.1641 7.42657 21.114 7.4593L21.0924 7.47385C20.8166 7.64114 20.5478 7.83753 20.2612 8.04119C20.0713 8.17939 19.8707 8.32122 19.6664 8.45942C19.9352 9.43771 20.5657 10.9943 22.0026 11.998C23.0595 12.7508 24.1775 12.9436 25.1664 13.1145C25.5247 13.1763 25.8651 13.2345 26.184 13.3182L26.209 13.3254C29.2904 14.02 29.6022 16.3731 29.6345 16.8895C29.6416 18.6824 27.8394 19.737 27.3664 19.9843C27.4703 20.1407 27.5742 20.3044 27.6745 20.4717C27.9074 20.8463 28.0973 21.2099 28.2549 21.5664C29.0934 21.119 31.4546 19.6062 31.426 16.8495V16.8131H31.4223ZM25.6573 6.95015C26.9113 8.21211 26.3703 10.256 26.209 10.7651C26.3917 10.8015 26.5781 10.8415 26.768 10.8888C27.1944 10.987 27.5813 11.107 27.9433 11.2452C28.2228 10.3287 28.8426 7.56114 26.9005 5.63364L26.8719 5.60819C25.4423 4.30259 22.7371 3.45522 19.8026 5.3427C19.4622 5.55 19.1433 5.77912 18.8351 6.00096C18.1078 6.52466 17.4234 7.01562 16.542 7.17564C14.8042 7.50295 13.217 6.29918 13.113 6.21916C13.0987 6.27736 13.0843 6.33191 13.0701 6.39373L13.0629 6.41919C12.9841 6.73559 12.9304 7.06654 12.8694 7.41567C12.83 7.65206 12.7906 7.89208 12.7404 8.14302C13.6111 8.64489 15.1446 9.2886 16.8538 8.96857C18.1257 8.74308 19.0501 8.07756 19.8671 7.4884C20.1645 7.27383 20.444 7.07381 20.727 6.89925L20.7485 6.8847C23.4107 5.16451 25.2703 6.60466 25.6537 6.94652L25.6573 6.95015Z" fill="#C7CFD2" fill-opacity="0.55"/>
</g>
</svg>
