<svg width="60" height="60" viewBox="0 0 60 60" fill="none" xmlns="http://www.w3.org/2000/svg">
<rect x="4" y="20" width="52" height="20" rx="5" fill="url(#paint0_linear_821_2992)" fill-opacity="0.2" stroke="white" stroke-width="2"/>
<mask id="mask0_821_2992" style="mask-type:alpha" maskUnits="userSpaceOnUse" x="0" y="0" width="60" height="21">
<rect width="60" height="21" rx="10" fill="url(#paint1_linear_821_2992)"/>
</mask>
<g mask="url(#mask0_821_2992)">
<path opacity="0.3" d="M10 -4C10 -6.76142 12.2386 -9 15 -9H45C47.7614 -9 50 -6.76142 50 -4V6C50 8.76142 47.7614 11 45 11H15C12.2386 11 10 8.76142 10 6V-4Z" fill="white" fill-opacity="0.1" stroke="white" stroke-width="2"/>
</g>
<mask id="mask1_821_2992" style="mask-type:alpha" maskUnits="userSpaceOnUse" x="0" y="39" width="60" height="21">
<rect width="60" height="21" rx="10" transform="matrix(1 0 0 -1 0 60)" fill="url(#paint2_linear_821_2992)"/>
</mask>
<g mask="url(#mask1_821_2992)">
<path opacity="0.3" d="M10 64C10 66.7614 12.2386 69 15 69H45C47.7614 69 50 66.7614 50 64V54C50 51.2386 47.7614 49 45 49H15C12.2386 49 10 51.2386 10 54V64Z" fill="white" fill-opacity="0.1" stroke="white" stroke-width="2"/>
</g>
<path d="M11 30H26" stroke="white" stroke-width="2" stroke-linecap="round"/>
<path d="M52.4256 13.1591C51.8793 11.2132 49.1207 11.2132 48.5744 13.1591L47.6066 16.6066L44.1591 17.5744C42.2132 18.1207 42.2132 20.8793 44.1591 21.4256L47.6066 22.3934L48.5744 25.8409C49.1207 27.7868 51.8793 27.7868 52.4256 25.8409L53.3934 22.3934L56.8409 21.4256C58.7868 20.8793 58.7868 18.1207 56.8409 17.5744L53.3934 16.6066L52.4256 13.1591Z" fill="white" stroke="#121212" stroke-width="2" stroke-linecap="round"/>
<path d="M41.0186 25.7147C41.1552 25.2282 41.8448 25.2282 41.9814 25.7147L42.6297 28.024C42.6769 28.1919 42.8081 28.3231 42.976 28.3703L45.2853 29.0186C45.7718 29.1552 45.7718 29.8448 45.2853 29.9814L42.976 30.6297C42.8081 30.6769 42.6769 30.8081 42.6297 30.976L41.9814 33.2853C41.8448 33.7718 41.1552 33.7718 41.0186 33.2853L40.3703 30.976C40.3231 30.8081 40.1919 30.6769 40.024 30.6297L37.7147 29.9814C37.2282 29.8448 37.2282 29.1552 37.7147 29.0186L40.024 28.3703C40.1919 28.3231 40.3231 28.1919 40.3703 28.024L41.0186 25.7147Z" fill="white"/>
<defs>
<linearGradient id="paint0_linear_821_2992" x1="30" y1="40" x2="30" y2="20" gradientUnits="userSpaceOnUse">
<stop stop-color="white"/>
<stop offset="1" stop-color="white" stop-opacity="0"/>
</linearGradient>
<linearGradient id="paint1_linear_821_2992" x1="30" y1="0" x2="30" y2="21" gradientUnits="userSpaceOnUse">
<stop stop-color="#141414" stop-opacity="0"/>
<stop offset="1" stop-color="#141414"/>
<stop offset="1" stop-color="#141414"/>
</linearGradient>
<linearGradient id="paint2_linear_821_2992" x1="30" y1="0" x2="30" y2="21" gradientUnits="userSpaceOnUse">
<stop stop-color="#141414" stop-opacity="0"/>
<stop offset="1" stop-color="#141414"/>
<stop offset="1" stop-color="#141414"/>
</linearGradient>
</defs>
</svg>
