<svg width="563" height="318" viewBox="0 0 563 318" fill="none" xmlns="http://www.w3.org/2000/svg">
<circle cx="1.5" cy="1.5" r="1.5" fill="#363636"/>
<circle cx="36.5" cy="1.5" r="1.5" fill="#363636"/>
<circle cx="71.5" cy="1.5" r="1.5" fill="#363636"/>
<circle cx="106.5" cy="1.5" r="1.5" fill="#363636"/>
<circle cx="141.5" cy="1.5" r="1.5" fill="#363636"/>
<circle cx="176.5" cy="1.5" r="1.5" fill="#363636"/>
<circle cx="211.5" cy="1.5" r="1.5" fill="#363636"/>
<circle cx="246.5" cy="1.5" r="1.5" fill="#363636"/>
<circle cx="281.5" cy="1.5" r="1.5" fill="#363636"/>
<circle cx="316.5" cy="1.5" r="1.5" fill="#363636"/>
<circle cx="351.5" cy="1.5" r="1.5" fill="#363636"/>
<circle cx="386.5" cy="1.5" r="1.5" fill="#363636"/>
<circle cx="421.5" cy="1.5" r="1.5" fill="#363636"/>
<circle cx="456.5" cy="1.5" r="1.5" fill="#363636"/>
<circle cx="491.5" cy="1.5" r="1.5" fill="#363636"/>
<circle cx="526.5" cy="1.5" r="1.5" fill="#363636"/>
<circle cx="561.5" cy="1.5" r="1.5" fill="#363636"/>
<circle cx="1.5" cy="36.5" r="1.5" fill="#363636"/>
<circle cx="36.5" cy="36.5" r="1.5" fill="#363636"/>
<circle cx="71.5" cy="36.5" r="1.5" fill="#363636"/>
<circle cx="106.5" cy="36.5" r="1.5" fill="#363636"/>
<circle cx="141.5" cy="36.5" r="1.5" fill="#363636"/>
<circle cx="176.5" cy="36.5" r="1.5" fill="#363636"/>
<circle cx="211.5" cy="36.5" r="1.5" fill="#363636"/>
<circle cx="246.5" cy="36.5" r="1.5" fill="#363636"/>
<circle cx="281.5" cy="36.5" r="1.5" fill="#363636"/>
<circle cx="316.5" cy="36.5" r="1.5" fill="#363636"/>
<circle cx="351.5" cy="36.5" r="1.5" fill="#363636"/>
<circle cx="386.5" cy="36.5" r="1.5" fill="#363636"/>
<circle cx="421.5" cy="36.5" r="1.5" fill="#363636"/>
<circle cx="456.5" cy="36.5" r="1.5" fill="#363636"/>
<circle cx="491.5" cy="36.5" r="1.5" fill="#363636"/>
<circle cx="526.5" cy="36.5" r="1.5" fill="#363636"/>
<circle cx="561.5" cy="36.5" r="1.5" fill="#363636"/>
<circle cx="1.5" cy="71.5" r="1.5" fill="#363636"/>
<circle cx="36.5" cy="71.5" r="1.5" fill="#363636"/>
<circle cx="71.5" cy="71.5" r="1.5" fill="#363636"/>
<circle cx="106.5" cy="71.5" r="1.5" fill="#363636"/>
<circle cx="141.5" cy="71.5" r="1.5" fill="#363636"/>
<circle cx="176.5" cy="71.5" r="1.5" fill="#363636"/>
<circle cx="211.5" cy="71.5" r="1.5" fill="#363636"/>
<circle cx="246.5" cy="71.5" r="1.5" fill="#363636"/>
<circle cx="281.5" cy="71.5" r="1.5" fill="#363636"/>
<circle cx="316.5" cy="71.5" r="1.5" fill="#363636"/>
<circle cx="351.5" cy="71.5" r="1.5" fill="#363636"/>
<circle cx="386.5" cy="71.5" r="1.5" fill="#363636"/>
<circle cx="421.5" cy="71.5" r="1.5" fill="#363636"/>
<circle cx="456.5" cy="71.5" r="1.5" fill="#363636"/>
<circle cx="491.5" cy="71.5" r="1.5" fill="#363636"/>
<circle cx="526.5" cy="71.5" r="1.5" fill="#363636"/>
<circle cx="561.5" cy="71.5" r="1.5" fill="#363636"/>
<circle cx="1.5" cy="106.5" r="1.5" fill="#363636"/>
<circle cx="36.5" cy="106.5" r="1.5" fill="#363636"/>
<circle cx="71.5" cy="106.5" r="1.5" fill="#363636"/>
<circle cx="106.5" cy="106.5" r="1.5" fill="#363636"/>
<circle cx="141.5" cy="106.5" r="1.5" fill="#363636"/>
<circle cx="176.5" cy="106.5" r="1.5" fill="#363636"/>
<circle cx="211.5" cy="106.5" r="1.5" fill="#363636"/>
<circle cx="246.5" cy="106.5" r="1.5" fill="#363636"/>
<circle cx="281.5" cy="106.5" r="1.5" fill="#363636"/>
<circle cx="316.5" cy="106.5" r="1.5" fill="#363636"/>
<circle cx="351.5" cy="106.5" r="1.5" fill="#363636"/>
<circle cx="386.5" cy="106.5" r="1.5" fill="#363636"/>
<circle cx="421.5" cy="106.5" r="1.5" fill="#363636"/>
<circle cx="456.5" cy="106.5" r="1.5" fill="#363636"/>
<circle cx="491.5" cy="106.5" r="1.5" fill="#363636"/>
<circle cx="526.5" cy="106.5" r="1.5" fill="#363636"/>
<circle cx="561.5" cy="106.5" r="1.5" fill="#363636"/>
<circle cx="1.5" cy="141.5" r="1.5" fill="#363636"/>
<circle cx="36.5" cy="141.5" r="1.5" fill="#363636"/>
<circle cx="71.5" cy="141.5" r="1.5" fill="#363636"/>
<circle cx="106.5" cy="141.5" r="1.5" fill="#363636"/>
<circle cx="141.5" cy="141.5" r="1.5" fill="#363636"/>
<circle cx="176.5" cy="141.5" r="1.5" fill="#363636"/>
<circle cx="211.5" cy="141.5" r="1.5" fill="#363636"/>
<circle cx="246.5" cy="141.5" r="1.5" fill="#363636"/>
<circle cx="281.5" cy="141.5" r="1.5" fill="#363636"/>
<circle cx="316.5" cy="141.5" r="1.5" fill="#363636"/>
<circle cx="351.5" cy="141.5" r="1.5" fill="#363636"/>
<circle cx="386.5" cy="141.5" r="1.5" fill="#363636"/>
<circle cx="421.5" cy="141.5" r="1.5" fill="#363636"/>
<circle cx="456.5" cy="141.5" r="1.5" fill="#363636"/>
<circle cx="491.5" cy="141.5" r="1.5" fill="#363636"/>
<circle cx="526.5" cy="141.5" r="1.5" fill="#363636"/>
<circle cx="561.5" cy="141.5" r="1.5" fill="#363636"/>
<circle cx="1.5" cy="176.5" r="1.5" fill="#363636"/>
<circle cx="36.5" cy="176.5" r="1.5" fill="#363636"/>
<circle cx="71.5" cy="176.5" r="1.5" fill="#363636"/>
<circle cx="106.5" cy="176.5" r="1.5" fill="#363636"/>
<circle cx="141.5" cy="176.5" r="1.5" fill="#363636"/>
<circle cx="176.5" cy="176.5" r="1.5" fill="#363636"/>
<circle cx="211.5" cy="176.5" r="1.5" fill="#363636"/>
<circle cx="246.5" cy="176.5" r="1.5" fill="#363636"/>
<circle cx="281.5" cy="176.5" r="1.5" fill="#363636"/>
<circle cx="316.5" cy="176.5" r="1.5" fill="#363636"/>
<circle cx="351.5" cy="176.5" r="1.5" fill="#363636"/>
<circle cx="386.5" cy="176.5" r="1.5" fill="#363636"/>
<circle cx="421.5" cy="176.5" r="1.5" fill="#363636"/>
<circle cx="456.5" cy="176.5" r="1.5" fill="#363636"/>
<circle cx="491.5" cy="176.5" r="1.5" fill="#363636"/>
<circle cx="526.5" cy="176.5" r="1.5" fill="#363636"/>
<circle cx="561.5" cy="176.5" r="1.5" fill="#363636"/>
<circle cx="1.5" cy="211.5" r="1.5" fill="#363636"/>
<circle cx="36.5" cy="211.5" r="1.5" fill="#363636"/>
<circle cx="71.5" cy="211.5" r="1.5" fill="#363636"/>
<circle cx="106.5" cy="211.5" r="1.5" fill="#363636"/>
<circle cx="141.5" cy="211.5" r="1.5" fill="#363636"/>
<circle cx="176.5" cy="211.5" r="1.5" fill="#363636"/>
<circle cx="211.5" cy="211.5" r="1.5" fill="#363636"/>
<circle cx="246.5" cy="211.5" r="1.5" fill="#363636"/>
<circle cx="281.5" cy="211.5" r="1.5" fill="#363636"/>
<circle cx="316.5" cy="211.5" r="1.5" fill="#363636"/>
<circle cx="351.5" cy="211.5" r="1.5" fill="#363636"/>
<circle cx="386.5" cy="211.5" r="1.5" fill="#363636"/>
<circle cx="421.5" cy="211.5" r="1.5" fill="#363636"/>
<circle cx="456.5" cy="211.5" r="1.5" fill="#363636"/>
<circle cx="491.5" cy="211.5" r="1.5" fill="#363636"/>
<circle cx="526.5" cy="211.5" r="1.5" fill="#363636"/>
<circle cx="561.5" cy="211.5" r="1.5" fill="#363636"/>
<circle cx="1.5" cy="246.5" r="1.5" fill="#363636"/>
<circle cx="36.5" cy="246.5" r="1.5" fill="#363636"/>
<circle cx="71.5" cy="246.5" r="1.5" fill="#363636"/>
<circle cx="106.5" cy="246.5" r="1.5" fill="#363636"/>
<circle cx="141.5" cy="246.5" r="1.5" fill="#363636"/>
<circle cx="176.5" cy="246.5" r="1.5" fill="#363636"/>
<circle cx="211.5" cy="246.5" r="1.5" fill="#363636"/>
<circle cx="246.5" cy="246.5" r="1.5" fill="#363636"/>
<circle cx="281.5" cy="246.5" r="1.5" fill="#363636"/>
<circle cx="316.5" cy="246.5" r="1.5" fill="#363636"/>
<circle cx="351.5" cy="246.5" r="1.5" fill="#363636"/>
<circle cx="386.5" cy="246.5" r="1.5" fill="#363636"/>
<circle cx="421.5" cy="246.5" r="1.5" fill="#363636"/>
<circle cx="456.5" cy="246.5" r="1.5" fill="#363636"/>
<circle cx="491.5" cy="246.5" r="1.5" fill="#363636"/>
<circle cx="526.5" cy="246.5" r="1.5" fill="#363636"/>
<circle cx="561.5" cy="246.5" r="1.5" fill="#363636"/>
<circle cx="1.5" cy="281.5" r="1.5" fill="#363636"/>
<circle cx="36.5" cy="281.5" r="1.5" fill="#363636"/>
<circle cx="71.5" cy="281.5" r="1.5" fill="#363636"/>
<circle cx="106.5" cy="281.5" r="1.5" fill="#363636"/>
<circle cx="141.5" cy="281.5" r="1.5" fill="#363636"/>
<circle cx="176.5" cy="281.5" r="1.5" fill="#363636"/>
<circle cx="211.5" cy="281.5" r="1.5" fill="#363636"/>
<circle cx="246.5" cy="281.5" r="1.5" fill="#363636"/>
<circle cx="281.5" cy="281.5" r="1.5" fill="#363636"/>
<circle cx="316.5" cy="281.5" r="1.5" fill="#363636"/>
<circle cx="351.5" cy="281.5" r="1.5" fill="#363636"/>
<circle cx="386.5" cy="281.5" r="1.5" fill="#363636"/>
<circle cx="421.5" cy="281.5" r="1.5" fill="#363636"/>
<circle cx="456.5" cy="281.5" r="1.5" fill="#363636"/>
<circle cx="491.5" cy="281.5" r="1.5" fill="#363636"/>
<circle cx="526.5" cy="281.5" r="1.5" fill="#363636"/>
<circle cx="561.5" cy="281.5" r="1.5" fill="#363636"/>
<circle cx="1.5" cy="316.5" r="1.5" fill="#363636"/>
<circle cx="36.5" cy="316.5" r="1.5" fill="#363636"/>
<circle cx="71.5" cy="316.5" r="1.5" fill="#363636"/>
<circle cx="106.5" cy="316.5" r="1.5" fill="#363636"/>
<circle cx="141.5" cy="316.5" r="1.5" fill="#363636"/>
<circle cx="176.5" cy="316.5" r="1.5" fill="#363636"/>
<circle cx="211.5" cy="316.5" r="1.5" fill="#363636"/>
<circle cx="246.5" cy="316.5" r="1.5" fill="#363636"/>
<circle cx="281.5" cy="316.5" r="1.5" fill="#363636"/>
<circle cx="316.5" cy="316.5" r="1.5" fill="#363636"/>
<circle cx="351.5" cy="316.5" r="1.5" fill="#363636"/>
<circle cx="386.5" cy="316.5" r="1.5" fill="#363636"/>
<circle cx="421.5" cy="316.5" r="1.5" fill="#363636"/>
<circle cx="456.5" cy="316.5" r="1.5" fill="#363636"/>
<circle cx="491.5" cy="316.5" r="1.5" fill="#363636"/>
<circle cx="526.5" cy="316.5" r="1.5" fill="#363636"/>
<circle cx="561.5" cy="316.5" r="1.5" fill="#363636"/>
</svg>
